
<svg width="259px" height="66px" viewBox="0 0 259 66" version="1.1" xmlns="http://www.w3.org/2000/svg" xmlns:xlink="http://www.w3.org/1999/xlink">
    <g id="Page-1" stroke="none" stroke-width="1" fill="none" fill-rule="evenodd">
        <g id="Group" transform="translate(2.000000, 2.000000)">
            <rect id="Rectangle" stroke="#142640" stroke-width="2" fill="#142640" x="-1" y="-1" width="257" height="64" rx="2"></rect>
            <rect id="Rectangle" stroke="#FFFFFF" stroke-width="2" fill="#142640" x="3" y="3" width="249" height="56" rx="5"></rect>
            <path d="M77.092,41.29 C74.4433201,41.29 72.3843407,40.6230067 70.915,39.289 C69.4456593,37.9549933 68.6723337,35.9733465 68.595,33.344 C68.5756666,32.7833305 68.566,31.9616721 68.566,30.879 C68.566,29.7769945 68.5756666,28.9456695 68.595,28.385 C68.6723337,25.8136538 69.4649925,23.8416735 70.973,22.469 C72.4810075,21.0963265 74.5206538,20.41 77.092,20.41 C79.6440128,20.41 81.6788257,21.0963265 83.1965,22.469 C84.7141743,23.8416735 85.5116663,25.8136538 85.589,28.385 C85.6276669,29.5063389 85.647,30.337664 85.647,30.879 C85.647,31.4010026 85.6276669,32.2226611 85.589,33.344 C85.5116663,35.9733465 84.7335074,37.9549933 83.2545,39.289 C81.7754926,40.6230067 79.7213465,41.29 77.092,41.29 Z M77.092,37.926 C78.3873398,37.926 79.4119962,37.5393372 80.166,36.766 C80.9200038,35.9926628 81.3259997,34.8036747 81.384,33.199 C81.4226669,32.0389942 81.442,31.256002 81.442,30.85 C81.442,30.4053311 81.4226669,29.6223389 81.384,28.501 C81.3259997,26.9156587 80.9103372,25.7315039 80.137,24.9485 C79.3636628,24.1654961 78.348673,23.774 77.092,23.774 C75.8159936,23.774 74.7913372,24.1654961 74.018,24.9485 C73.2446628,25.7315039 72.8386669,26.9156587 72.8,28.501 C72.7806666,29.0616695 72.771,29.8446616 72.771,30.85 C72.771,31.8360049 72.7806666,32.6189971 72.8,33.199 C72.8386669,34.7843413 73.2398295,35.9684961 74.0035,36.7515 C74.7671705,37.5345039 75.7966602,37.926 77.092,37.926 Z M96.493,41.29 C94.7529913,41.29 93.2643395,41.0290026 92.027,40.507 C90.7896605,39.9849974 89.8520032,39.2986709 89.214,38.448 C88.5759968,37.5973291 88.2376669,36.6693384 88.199,35.664 C88.199,35.5093326 88.2569994,35.3691673 88.373,35.2435 C88.4890006,35.1178327 88.6339991,35.055 88.808,35.055 L91.447,35.055 C91.6596677,35.055 91.833666,35.1033329 91.969,35.2 C92.104334,35.2966671 92.2299994,35.4319991 92.346,35.606 C92.5393343,36.2633366 92.9791632,36.8143311 93.6655,37.259 C94.3518368,37.7036689 95.2943273,37.926 96.493,37.926 C97.8463401,37.926 98.8661632,37.6988356 99.5525,37.2445 C100.238837,36.7901644 100.582,36.1666706 100.582,35.374 C100.582,34.8519974 100.408002,34.4170017 100.06,34.069 C99.7119983,33.7209983 99.1851702,33.4165013 98.4795,33.1555 C97.7738298,32.8944987 96.725007,32.5803352 95.333,32.213 C93.0516553,31.671664 91.3793386,30.9563378 90.316,30.067 C89.2526613,29.1776622 88.721,27.901675 88.721,26.239 C88.721,25.1176611 89.0303302,24.1171711 89.649,23.2375 C90.2676698,22.3578289 91.1521609,21.6666692 92.3025,21.164 C93.4528391,20.6613308 94.791659,20.41 96.319,20.41 C97.9236747,20.41 99.3108275,20.6903305 100.4805,21.251 C101.650173,21.8116695 102.539497,22.5124958 103.1485,23.3535 C103.757503,24.1945042 104.081333,25.0306625 104.12,25.862 C104.12,26.0166674 104.062001,26.1568327 103.946,26.2825 C103.829999,26.4081673 103.685001,26.471 103.511,26.471 L100.756,26.471 C100.330665,26.471 100.040667,26.2970017 99.886,25.949 C99.7893328,25.3303302 99.4123366,24.8131687 98.755,24.3975 C98.0976634,23.9818313 97.2856715,23.774 96.319,23.774 C95.2556613,23.774 94.419503,23.976998 93.8105,24.383 C93.201497,24.789002 92.897,25.3786628 92.897,26.152 C92.897,26.6740026 93.0516651,27.1089983 93.361,27.457 C93.6703349,27.8050017 94.1536634,28.1094987 94.811,28.3705 C95.4683366,28.6315013 96.4253271,28.9263317 97.682,29.255 C99.4026753,29.6416686 100.770495,30.0766643 101.7855,30.56 C102.800505,31.0433358 103.549664,31.6523297 104.033,32.387 C104.516336,33.1216703 104.758,34.0593276 104.758,35.2 C104.758,36.4566729 104.414837,37.5441621 103.7285,38.4625 C103.042163,39.3808379 102.075506,40.0816643 100.8285,40.565 C99.5814938,41.0483357 98.1363415,41.29 96.493,41.29 Z M115.981,41.29 C113.312987,41.29 111.239507,40.6036735 109.7605,39.231 C108.281493,37.8583265 107.493667,35.9443456 107.397,33.489 C107.377667,32.9283305 107.368,32.0293395 107.368,30.792 C107.368,29.5546605 107.377667,28.6556695 107.397,28.095 C107.474334,25.6976547 108.266992,23.8175068 109.775,22.4545 C111.283008,21.0914932 113.351654,20.41 115.981,20.41 C117.759676,20.41 119.291827,20.714497 120.5775,21.3235 C121.863173,21.932503 122.834663,22.6864955 123.492,23.5855 C124.149337,24.4845045 124.497333,25.3689956 124.536,26.239 C124.536,26.4130009 124.478001,26.5579994 124.362,26.674 C124.245999,26.7900006 124.091334,26.848 123.898,26.848 L120.853,26.848 C120.659666,26.848 120.514667,26.8093337 120.418,26.732 C120.321333,26.6546663 120.234334,26.5290009 120.157,26.355 C119.886332,25.6396631 119.41267,25.0306692 118.736,24.528 C118.05933,24.0253308 117.141006,23.774 115.981,23.774 C114.62766,23.774 113.56917,24.1364964 112.8055,24.8615 C112.04183,25.5865036 111.640667,26.712659 111.602,28.24 C111.582667,28.8006695 111.573,29.6513276 111.573,30.792 C111.573,31.9133389 111.582667,32.7639971 111.602,33.344 C111.640667,34.9100078 112.046663,36.0651629 112.82,36.8095 C113.593337,37.5538371 114.65666,37.926 116.01,37.926 C117.382674,37.926 118.484663,37.5586703 119.316,36.824 C120.147337,36.0893297 120.563,34.9873407 120.563,33.518 L120.563,32.619 L117.025,32.619 C116.831666,32.619 116.667334,32.551334 116.532,32.416 C116.396666,32.280666 116.329,32.1163343 116.329,31.923 L116.329,30.328 C116.329,30.1346657 116.396666,29.970334 116.532,29.835 C116.667334,29.699666 116.831666,29.632 117.025,29.632 L123.985,29.632 C124.197668,29.632 124.371666,29.699666 124.507,29.835 C124.642334,29.970334 124.71,30.1346657 124.71,30.328 L124.71,33.402 C124.71,35.0066747 124.352337,36.4034941 123.637,37.5925 C122.921663,38.7815059 121.906673,39.6949968 120.592,40.333 C119.277327,40.9710032 117.740342,41.29 115.981,41.29 Z M136.223,41.29 C133.57432,41.29 131.515341,40.6230067 130.046,39.289 C128.576659,37.9549933 127.803334,35.9733465 127.726,33.344 C127.706667,32.7833305 127.697,31.9616721 127.697,30.879 C127.697,29.7769945 127.706667,28.9456695 127.726,28.385 C127.803334,25.8136538 128.595992,23.8416735 130.104,22.469 C131.612008,21.0963265 133.651654,20.41 136.223,20.41 C138.775013,20.41 140.809826,21.0963265 142.3275,22.469 C143.845174,23.8416735 144.642666,25.8136538 144.72,28.385 C144.758667,29.5063389 144.778,30.337664 144.778,30.879 C144.778,31.4010026 144.758667,32.2226611 144.72,33.344 C144.642666,35.9733465 143.864507,37.9549933 142.3855,39.289 C140.906493,40.6230067 138.852346,41.29 136.223,41.29 Z M136.223,37.926 C137.51834,37.926 138.542996,37.5393372 139.297,36.766 C140.051004,35.9926628 140.457,34.8036747 140.515,33.199 C140.553667,32.0389942 140.573,31.256002 140.573,30.85 C140.573,30.4053311 140.553667,29.6223389 140.515,28.501 C140.457,26.9156587 140.041337,25.7315039 139.268,24.9485 C138.494663,24.1654961 137.479673,23.774 136.223,23.774 C134.946994,23.774 133.922337,24.1654961 133.149,24.9485 C132.375663,25.7315039 131.969667,26.9156587 131.931,28.501 C131.911667,29.0616695 131.902,29.8446616 131.902,30.85 C131.902,31.8360049 131.911667,32.6189971 131.931,33.199 C131.969667,34.7843413 132.37083,35.9684961 133.1345,36.7515 C133.89817,37.5345039 134.92766,37.926 136.223,37.926 Z M156.378,41.29 C153.72932,41.29 151.670341,40.6230067 150.201,39.289 C148.731659,37.9549933 147.958334,35.9733465 147.881,33.344 C147.861667,32.7833305 147.852,31.9616721 147.852,30.879 C147.852,29.7769945 147.861667,28.9456695 147.881,28.385 C147.958334,25.8136538 148.750992,23.8416735 150.259,22.469 C151.767008,21.0963265 153.806654,20.41 156.378,20.41 C158.930013,20.41 160.964826,21.0963265 162.4825,22.469 C164.000174,23.8416735 164.797666,25.8136538 164.875,28.385 C164.913667,29.5063389 164.933,30.337664 164.933,30.879 C164.933,31.4010026 164.913667,32.2226611 164.875,33.344 C164.797666,35.9733465 164.019507,37.9549933 162.5405,39.289 C161.061493,40.6230067 159.007346,41.29 156.378,41.29 Z M156.378,37.926 C157.67334,37.926 158.697996,37.5393372 159.452,36.766 C160.206004,35.9926628 160.612,34.8036747 160.67,33.199 C160.708667,32.0389942 160.728,31.256002 160.728,30.85 C160.728,30.4053311 160.708667,29.6223389 160.67,28.501 C160.612,26.9156587 160.196337,25.7315039 159.423,24.9485 C158.649663,24.1654961 157.634673,23.774 156.378,23.774 C155.101994,23.774 154.077337,24.1654961 153.304,24.9485 C152.530663,25.7315039 152.124667,26.9156587 152.086,28.501 C152.066667,29.0616695 152.057,29.8446616 152.057,30.85 C152.057,31.8360049 152.066667,32.6189971 152.086,33.199 C152.124667,34.7843413 152.52583,35.9684961 153.2895,36.7515 C154.05317,37.5345039 155.08266,37.926 156.378,37.926 Z M169.399,41 C169.205666,41 169.041334,40.932334 168.906,40.797 C168.770666,40.661666 168.703,40.4973343 168.703,40.304 L168.703,21.425 C168.703,21.2123323 168.765833,21.038334 168.8915,20.903 C169.017167,20.767666 169.186332,20.7 169.399,20.7 L176.475,20.7 C182.178362,20.7 185.087999,23.329307 185.204,28.588 C185.242667,29.7093389 185.262,30.4633314 185.262,30.85 C185.262,31.2173352 185.242667,31.9616611 185.204,33.083 C185.126666,35.7896802 184.39684,37.7858269 183.0145,39.0715 C181.63216,40.3571731 179.500681,41 176.62,41 L169.399,41 Z M176.475,37.636 C178.079675,37.636 179.239663,37.2783369 179.955,36.563 C180.670337,35.8476631 181.047333,34.658675 181.086,32.996 C181.124667,31.8359942 181.144,31.1110014 181.144,30.821 C181.144,30.5116651 181.124667,29.7963389 181.086,28.675 C181.047333,27.0896587 180.651004,25.9248371 179.897,25.1805 C179.142996,24.4361629 177.954008,24.064 176.33,24.064 L172.792,24.064 L172.792,37.636 L176.475,37.636 Z" id="OSGOOD" fill="#FFFFFF" fill-rule="nonzero"></path>
        </g>
    </g>
</svg>
